<svg width="75" height="69" viewBox="0 0 75 69" fill="none" xmlns="http://www.w3.org/2000/svg">
<path d="M28.2 1L18.75 6.05L16.7 8.35L12.2 9.55L1 15.5V44.85L28.2 61L55 44.85V15.5L28.2 1Z" fill="#D6AB7F"/>
<path d="M12.2 9.54999L38.45 24.5V30.5L45.15 26.85V20.8L18.75 6.04999L12.2 9.54999Z" fill="white"/>
<path d="M28.2 61.5C28.1 61.5 28 61.5 27.95 61.45L0.75 45.3C0.6 45.2 0.5 45 0.5 44.85V15.5C0.5 15.3 0.6 15.15 0.75 15.05C0.9 14.95 1.1 14.95 1.25 15.05L28.45 29.55C28.7 29.7 28.8 30 28.65 30.25C28.5 30.5 28.2 30.6 27.95 30.5L1.5 16.35V44.55L28.2 60.4L54.5 44.55V15.5C54.5 15.2 54.7 15 55 15C55.3 15 55.5 15.2 55.5 15.5V44.85C55.5 45.05 55.4 45.2 55.25 45.3L28.45 61.45C28.4 61.5 28.3 61.5 28.2 61.5Z" fill="#6A576D"/>
<path d="M28.2 61L55 44.85V15.5L45 21V27L38.5 30.5V24.5L28.2 30.05V61Z" fill="#A67E59"/>
<path d="M28.2 61.5C28.1 61.5 28 61.5 27.95 61.45L0.75 45.3C0.6 45.2 0.5 45 0.5 44.85V15.5C0.5 15.3 0.6 15.15 0.75 15.05L11.95 9.04998C12.2 8.89998 12.5 8.99998 12.65 9.24998C12.8 9.49998 12.7 9.79998 12.45 9.94998L1.5 15.8V44.55L28.2 60.4L54.5 44.55V15.8L28.2 1.54998L18.95 6.49998C18.7 6.64998 18.4 6.54998 18.25 6.29998C18.1 6.04998 18.2 5.74998 18.45 5.59998L27.95 0.549976C28.1 0.449976 28.3 0.449976 28.4 0.549976L55.2 15.05C55.35 15.15 55.45 15.3 55.45 15.5V44.85C55.45 45.05 55.35 45.2 55.2 45.3L28.4 61.45C28.4 61.5 28.3 61.5 28.2 61.5Z" fill="#030303"/>
<path d="M38.45 31C38.35 31 38.25 31 38.2 30.95C38.05 30.85 37.95 30.7 37.95 30.5V24.75L11.95 9.94996C11.8 9.84996 11.7 9.69996 11.7 9.49996C11.7 9.29996 11.8 9.14996 11.95 9.04996L18.45 5.59996C18.6 5.49996 18.8 5.49996 18.95 5.59996L45.4 20.35C45.55 20.45 45.65 20.6 45.65 20.8V26.85C45.65 27.05 45.55 27.2 45.4 27.3L38.7 30.95C38.65 31 38.55 31 38.45 31ZM13.25 9.54996L38.7 24.05C38.85 24.15 38.95 24.3 38.95 24.5V29.7L44.65 26.6V21.1L18.75 6.64996L13.25 9.54996Z" fill="black"/>
<path d="M28.2 61.5C28.1 61.5 28 61.5 27.95 61.45L0.75 45.3C0.6 45.2 0.5 45 0.5 44.85V15.5C0.5 15.3 0.6 15.15 0.75 15.05C0.9 14.95 1.1 14.95 1.25 15.05L28.2 29.45L38 24.15C38.25 24 38.55 24.1 38.7 24.35C38.85 24.6 38.75 24.9 38.5 25.05L28.45 30.5C28.3 30.6 28.1 30.6 28 30.5L1.5 16.35V44.55L28.2 60.4L54.5 44.55V16.35L45.45 21.25C45.2 21.4 44.9 21.3 44.75 21.05C44.6 20.8 44.7 20.5 44.95 20.35L54.75 15.05C54.9 14.95 55.1 14.95 55.25 15.05C55.4 15.15 55.5 15.3 55.5 15.5V44.85C55.5 45.05 55.4 45.2 55.25 45.3L28.45 61.45C28.4 61.5 28.3 61.5 28.2 61.5ZM12.2 10.05C12 10.05 11.85 9.94998 11.75 9.79998C11.7 9.74998 11.7 9.64998 11.7 9.54998C11.7 9.34998 11.8 9.19998 11.95 9.09998L18.2 5.74998C18.45 5.59998 18.75 5.69998 18.9 5.94998C18.95 5.99998 18.95 6.09998 18.95 6.19998C18.95 6.39998 18.85 6.54998 18.7 6.64998L12.45 9.99998C12.4 9.99998 12.3 10.05 12.2 10.05Z" fill="black"/>
<path d="M28.2 61.5C27.9 61.5 27.7 61.3 27.7 61V30.05C27.7 29.75 27.9 29.55 28.2 29.55C28.5 29.55 28.7 29.75 28.7 30.05V61C28.7 61.3 28.5 61.5 28.2 61.5Z" fill="black"/>
<path d="M51.6345 39.0245C51.0208 38.3878 49.9186 37.7308 48.452 39.1443L47.1596 40.39L44.4595 37.5887C42.8333 35.9014 40.5815 36.5616 39.8582 38.0366C39.3346 39.1045 39.4197 40.4682 40.3957 41.4807L49.9994 51.4905C48.3762 50.9965 45.956 51.9001 45.2824 53.4171L45.295 53.3638C44.5795 54.975 45.392 56.5863 47.6821 57.4122L59.7194 61.3207L70.9248 50.52L70.5686 49.3282C69.6417 46.2275 67.9861 43.3937 65.7402 41.0636L63.8805 39.1342C63.784 39.0342 63.6837 38.9387 63.5798 38.848C62.3988 37.8176 60.6233 37.8674 59.4905 38.9506L58.6467 39.7574L56.5602 37.5927C55.6471 36.6453 54.1331 36.6189 53.1923 37.5389L51.6345 39.0245Z" fill="white"/>
<path d="M66.2567 40.5659L64.397 38.6365C64.2869 38.5223 64.1706 38.4116 64.0514 38.3077C63.3451 37.6913 62.4385 37.3654 61.4986 37.3897C60.5617 37.4141 59.6727 37.7843 58.9951 38.4323L58.6675 38.7454L57.7518 37.7954C57.7516 37.7952 57.7515 37.7951 57.7514 37.795L57.0767 37.095C56.5002 36.497 55.7248 36.1607 54.8935 36.1484C54.0662 36.1362 53.2855 36.4467 52.6946 37.0228L51.607 38.0598C51.2423 37.8075 50.8559 37.6547 50.4523 37.6041C49.6094 37.4984 48.7689 37.8428 47.9544 38.6281L47.1783 39.376L44.9758 37.091C44.0792 36.1607 42.8932 35.7326 41.7221 35.9163C40.6211 36.0889 39.6838 36.7635 39.2144 37.7208C38.51 39.1573 38.771 40.8284 39.8783 41.9772L48.2455 50.6981C47.837 50.7611 47.4234 50.8735 47.0205 51.0331C45.9742 51.4479 45.1484 52.1334 44.7211 52.9336C44.6893 52.9761 44.6619 53.0225 44.6396 53.0728C44.243 53.966 44.2211 54.8779 44.5761 55.7098C45.0199 56.7495 46.0098 57.5714 47.4388 58.0868C47.4461 58.0894 47.4533 58.0919 47.4607 58.0943L59.4981 62.0027C59.6538 62.0534 59.8189 62.0483 59.9674 61.9936C60.0591 61.9598 60.1444 61.9072 60.2172 61.837L71.4226 51.0363C71.6158 50.8502 71.6889 50.5717 71.612 50.3146L71.2558 49.1228C70.3005 45.9267 68.5718 42.9677 66.2567 40.5659ZM61.0762 43.311C61.2799 43.5224 61.5819 43.5817 61.8408 43.4863C61.9312 43.453 62.0164 43.4009 62.0902 43.3297C62.3754 43.0548 62.3837 42.6008 62.1088 42.3157L59.6629 39.778L59.9863 39.4688C60.8604 38.6328 62.2028 38.5981 63.1086 39.3885C63.1968 39.4654 63.2827 39.5472 63.3643 39.6318L65.224 41.5612C67.3809 43.799 68.9916 46.5558 69.8817 49.5336L70.1128 50.3068L59.5318 60.5057L47.915 56.7337C46.8908 56.3623 46.1738 55.7989 45.8955 55.1467C45.715 54.7239 45.7149 54.2684 45.8948 53.7907C45.9108 53.7644 45.9253 53.7368 45.9381 53.708C46.4381 52.5817 48.426 51.7846 49.7584 52.1676L52.8964 53.5404C53.073 53.6176 53.2639 53.6181 53.4316 53.5564C53.6084 53.4913 53.7594 53.357 53.8409 53.1708C53.9997 52.808 53.8342 52.3851 53.4713 52.2263L50.4181 50.8906L40.9122 40.9828C40.0815 40.121 40.1558 39.0588 40.5024 38.3522C40.7622 37.8223 41.3148 37.4318 41.9446 37.3331C42.6577 37.2213 43.3675 37.4887 43.9434 38.0862L51.1234 45.5353C51.3271 45.7466 51.6291 45.8059 51.888 45.7106C51.9784 45.6773 52.0636 45.6251 52.1374 45.5539C52.4226 45.279 52.431 44.825 52.1561 44.5399L48.1739 40.4085L48.95 39.6605C49.4371 39.1911 49.8826 38.9779 50.2741 39.027C50.5512 39.0618 50.8353 39.2283 51.1184 39.522L55.3528 43.915C55.5565 44.1264 55.8585 44.1857 56.1173 44.0903C56.2078 44.057 56.293 44.0049 56.3668 43.9337C56.6519 43.6588 56.6603 43.2048 56.3854 42.9197L52.6514 39.0457L53.6876 38.0576C53.6898 38.0555 53.692 38.0535 53.6941 38.0513C54.0101 37.7423 54.4286 37.5756 54.8725 37.5822C55.3189 37.5888 55.735 37.7691 56.0443 38.0901L61.0762 43.311Z" fill="black"/>
<path d="M67.3607 52.0541C67.1016 52.1495 66.7993 52.09 66.5957 51.8783C66.3211 51.5929 66.3298 51.139 66.6152 50.8644L67.1718 50.3287C67.4573 50.0541 67.9113 50.0628 68.1858 50.3483C68.4604 50.6337 68.4517 51.0876 68.1663 51.3622L67.6096 51.8979C67.536 51.9688 67.4509 52.0209 67.3607 52.0541Z" fill="black"/>
<path d="M59.7327 59.4143C59.4736 59.5098 59.1714 59.4502 58.9678 59.2386C58.6932 58.9532 58.7018 58.4992 58.9873 58.2246L64.932 52.5043C65.2175 52.2297 65.6714 52.2384 65.9459 52.5238C66.2205 52.8092 66.2118 53.2632 65.9264 53.5378L59.9817 59.2582C59.908 59.3291 59.823 59.3811 59.7327 59.4143Z" fill="black"/>
<path d="M39.4724 35.2413C39.1599 35.3564 38.7991 35.2406 38.6163 34.9467L37.3332 32.884C37.124 32.5477 37.227 32.1055 37.5634 31.8963C37.8996 31.6874 38.3419 31.7902 38.5511 32.1265L39.8341 34.1892C40.0433 34.5255 39.9403 34.9678 39.604 35.177C39.5616 35.2033 39.5175 35.2247 39.4724 35.2413Z" fill="black"/>
<path d="M32.4172 37.7225C32.2962 37.7671 32.1618 37.7796 32.0263 37.7519L31.4555 37.6352C31.0675 37.5558 30.8172 37.177 30.8966 36.7889C30.9759 36.4008 31.3547 36.1506 31.7428 36.23L32.3136 36.3467C32.7016 36.426 32.9519 36.8048 32.8726 37.1929C32.8209 37.4454 32.6424 37.6396 32.4172 37.7225Z" fill="black"/>
<path d="M37.0004 38.8069C36.8735 38.8536 36.7321 38.865 36.5904 38.832L34.8072 38.4164C34.4215 38.3265 34.1816 37.941 34.2715 37.5553C34.3614 37.1696 34.7469 36.9297 35.1327 37.0196L36.916 37.4352C37.3017 37.5251 37.5416 37.9106 37.4517 38.2963C37.3947 38.5405 37.2193 38.7262 37.0004 38.8069Z" fill="black"/>
<path d="M35.7109 44.3593C35.3984 44.4744 35.0376 44.3586 34.8548 44.0647C34.6456 43.7284 34.7486 43.2862 35.0849 43.077L37.1477 41.794C37.4842 41.5849 37.9262 41.6879 38.1354 42.0241C38.3446 42.3604 38.2416 42.8027 37.9053 43.0119L35.8425 44.2949C35.8001 44.3212 35.756 44.3427 35.7109 44.3593Z" fill="black"/>
<path d="M40.6373 48.6034C40.5103 48.6501 40.3689 48.6616 40.2273 48.6286C39.8416 48.5387 39.6017 48.1531 39.6916 47.7674L40.2429 45.4016C40.3328 45.0159 40.7183 44.776 41.1041 44.8659C41.4898 44.9558 41.7297 45.3414 41.6398 45.7271L41.0885 48.0929C41.0316 48.3371 40.8562 48.5228 40.6373 48.6034Z" fill="black"/>
<path d="M47.3072 36.9401C46.9946 37.0552 46.6339 36.9394 46.4511 36.6456C46.2419 36.3092 46.3449 35.867 46.6812 35.6578L48.0564 34.8024C48.3927 34.5932 48.8349 34.6962 49.0441 35.0326C49.2533 35.3689 49.1503 35.8111 48.8139 36.0203L47.4388 36.8757C47.3963 36.902 47.3522 36.9235 47.3072 36.9401Z" fill="black"/>
<path d="M51.1749 34.5343C50.8624 34.6494 50.5016 34.5336 50.3188 34.2398C50.1096 33.9035 50.2126 33.4613 50.549 33.2521L50.9787 32.9847C51.3153 32.7755 51.7573 32.8786 51.9665 33.2149C52.1757 33.5512 52.0727 33.9934 51.7363 34.2026L51.3065 34.4699C51.2641 34.4963 51.22 34.5177 51.1749 34.5343Z" fill="black"/>
<path d="M43.7417 34.4679C43.6148 34.5146 43.4734 34.526 43.3318 34.4931C42.9461 34.4032 42.7062 34.0176 42.7961 33.6319L43.3474 31.2661C43.4372 30.8804 43.8228 30.6405 44.2086 30.7304C44.5943 30.8203 44.8342 31.2059 44.7443 31.5916L44.1929 33.9574C44.1361 34.2015 43.9607 34.3873 43.7417 34.4679Z" fill="black"/>
</svg>
