<svg width="45" height="45" viewBox="0 0 45 45" fill="none" xmlns="http://www.w3.org/2000/svg">
<path d="M40.1667 13.6667H13.6667C11.9096 13.6667 10.2245 12.9687 8.9821 11.7262C7.73968 10.4838 7.04169 8.79872 7.04169 7.04166C7.04169 5.2846 7.73968 3.5995 8.9821 2.35707C10.2245 1.11465 11.9096 0.416656 13.6667 0.416656H40.1667C40.7524 0.416656 41.3141 0.649319 41.7282 1.06346C42.1424 1.47761 42.375 2.0393 42.375 2.62499V11.4583C42.375 12.044 42.1424 12.6057 41.7282 13.0198C41.3141 13.434 40.7524 13.6667 40.1667 13.6667ZM13.6667 4.83332C13.081 4.83332 12.5193 5.06599 12.1052 5.48013C11.691 5.89427 11.4584 6.45597 11.4584 7.04166C11.4584 7.62734 11.691 8.18904 12.1052 8.60318C12.5193 9.01733 13.081 9.24999 13.6667 9.24999H37.9584V4.83332H13.6667Z" fill="#485D45"/>
<path d="M37.9584 44.5833H7.04169C5.28463 44.5833 3.59953 43.8853 2.3571 42.6429C1.11468 41.4005 0.416687 39.7154 0.416687 37.9583C0.416687 36.2013 1.11468 34.5162 2.3571 33.2737C3.59953 32.0313 5.28463 31.3333 7.04169 31.3333H37.9584C38.544 31.3333 39.1057 31.566 39.5199 31.9801C39.934 32.3943 40.1667 32.956 40.1667 33.5416V42.375C40.1667 42.9607 39.934 43.5224 39.5199 43.9365C39.1057 44.3507 38.544 44.5833 37.9584 44.5833ZM7.04169 35.75C6.456 35.75 5.8943 35.9826 5.48016 36.3968C5.06602 36.8109 4.83335 37.3726 4.83335 37.9583C4.83335 38.544 5.06602 39.1057 5.48016 39.5198C5.8943 39.934 6.456 40.1666 7.04169 40.1666H35.75V35.75H7.04169Z" fill="#485D45"/>
<path d="M33.5417 22.5H7.04169C5.28463 22.5 3.59953 21.802 2.3571 20.5596C1.11468 19.3172 0.416687 17.6321 0.416687 15.875C0.416687 14.1179 1.11468 12.4328 2.3571 11.1904C3.59953 9.94799 5.28463 9.25 7.04169 9.25H33.5417C34.1274 9.25 34.6891 9.48266 35.1032 9.89681C35.5174 10.3109 35.75 10.8726 35.75 11.4583C35.75 12.044 35.5174 12.6057 35.1032 13.0199C34.6891 13.434 34.1274 13.6667 33.5417 13.6667H7.04169C6.456 13.6667 5.8943 13.8993 5.48016 14.3135C5.06602 14.7276 4.83335 15.2893 4.83335 15.875C4.83335 16.4607 5.06602 17.0224 5.48016 17.4365C5.8943 17.8507 6.456 18.0833 7.04169 18.0833H33.5417C34.1274 18.0833 34.6891 18.316 35.1032 18.7301C35.5174 19.1443 35.75 19.706 35.75 20.2917C35.75 20.8774 35.5174 21.4391 35.1032 21.8532C34.6891 22.2673 34.1274 22.5 33.5417 22.5Z" fill="#485D45"/>
<path d="M42.375 35.75H18.0833C15.7406 35.75 13.4938 34.8193 11.8372 33.1628C10.1807 31.5062 9.25 29.2594 9.25 26.9166C9.25 24.5739 10.1807 22.3271 11.8372 20.6705C13.4938 19.014 15.7406 18.0833 18.0833 18.0833H42.375C42.9607 18.0833 43.5224 18.316 43.9365 18.7301C44.3507 19.1443 44.5833 19.706 44.5833 20.2916C44.5833 20.8773 44.3507 21.439 43.9365 21.8532C43.5224 22.2673 42.9607 22.5 42.375 22.5H18.0833C16.912 22.5 15.7886 22.9653 14.9603 23.7936C14.132 24.6219 13.6667 25.7453 13.6667 26.9166C13.6667 28.088 14.132 29.2114 14.9603 30.0397C15.7886 30.868 16.912 31.3333 18.0833 31.3333H40.1667V26.9166C40.1667 26.331 40.3993 25.7693 40.8135 25.3551C41.2276 24.941 41.7893 24.7083 42.375 24.7083C42.9607 24.7083 43.5224 24.941 43.9365 25.3551C44.3507 25.7693 44.5833 26.331 44.5833 26.9166V33.5416C44.5833 34.1273 44.3507 34.689 43.9365 35.1032C43.5224 35.5173 42.9607 35.75 42.375 35.75Z" fill="#485D45"/>
</svg>
